#!OML:ASF I:\Actors\actors\Patient Classification 2\Patient 1\Session 1\actor1.ASF
:FULLY-SPECIFIED
:DEGREES
154
root -0.547159 18.6951 5.63082 2.10851 -4.8118 -1.53699
lowerback 1.00717 0.714431 -0.763149
upperback -2.68447 0.963404 1.05495
thorax -3.35344 0.515555 1.47463
lowerneck -15.5211 -1.04405 -2.68026
upperneck 32.2737 -1.31507 1.68085
head 13.5082 -0.686663 0.919499
rclavicle 8.30237e-015 -2.33572e-015
rhumerus -39.4819 22.2797 -93.4816
rradius 90.529
rwrist 14.5524
rhand -18.7779 -32.4894
rfingers 7.12502
rthumb 7.5195 -62.3358
lclavicle 8.30237e-015 -2.33572e-015
lhumerus -46.6675 -19.3541 97.4414
lradius 101.05
lwrist 28.2407
lhand -15.3029 -27.5326
lfingers 7.12502
lthumb 10.8726 2.16593
rfemur 0 0 0
rtibia 0
rfoot 0 0
rtoes 0
lfemur -3.66562 -7.98305 -13.6468
ltibia 20.9223
lfoot -25.3021 17.2526
ltoes -53.7084
155
root -0.546173 18.696 5.6299 2.10848 -4.75031 -1.54792
lowerback 0.946598 0.720554 -0.730122
upperback -2.67392 0.971985 1.03535
thorax -3.30762 0.518391 1.4364
lowerneck -15.5166 -1.03587 -2.65354
upperneck 32.4462 -1.3139 1.68289
head 13.5816 -0.683119 0.917205
rclavicle -7.76192e-015 -4.22417e-015
rhumerus -38.3965 23.2797 -93.1072
rradius 91.6893
rwrist 15.7202
rhand -17.5415 -32.3727
rfingers 7.12502
rthumb 8.71283 -62.1729
lclavicle -7.76192e-015 -4.22417e-015
lhumerus -46.3613 -20.0179 97.791
lradius 102.033
lwrist 28.4555
lhand -15.5733 -27.8382
lfingers 7.12502
lthumb 10.6118 1.87391
rfemur 0 0 0
rtibia 0
rfoot 0 0
rtoes 0
lfemur -3.69312 -8.01128 -13.6286
ltibia 20.9366
lfoot -25.2679 17.2391
ltoes -53.6841
156
root -0.544363 18.6966 5.63019 2.10425 -4.72864 -1.54333
lowerback 0.881834 0.72886 -0.724845
upperback -2.64691 0.982913 1.02466
thorax -3.24314 0.523087 1.42299
lowerneck -15.5891 -1.02827 -2.6065
upperneck 32.642 -1.29053 1.60509
head 13.6811 -0.678106 0.883159
rclavicle -6.91553e-015 4.37326e-015
rhumerus -37.2689 24.3463 -92.6271
rradius 92.6998
rwrist 17.1361
rhand -16.2009 -32.3585
rfingers 7.12502
rthumb 10.0063 -62.1006
lclavicle -6.91553e-015 4.37326e-015
lhumerus -46.0053 -20.6149 98.1568
lradius 102.848
lwrist 28.5181
lhand -15.8329 -28.1112
lfingers 7.12502
lthumb 10.3614 1.61357
rfemur 0 0 0
rtibia 0
rfoot 0 0
rtoes 0
lfemur -3.70022 -8.08601 -13.649
ltibia 20.9518
lfoot -25.33 17.2721
ltoes -53.5818
157
root -0.542626 18.6963 5.62997 2.07815 -4.73495 -1.55985
lowerback 0.875923 0.746587 -0.706724
upperback -2.61133 1.00657 1.01338
thorax -3.20322 0.533879 1.40064
lowerneck -15.6731 -1.00371 -2.45185
upperneck 32.7988 -1.23699 1.41869
head 13.7642 -0.66122 0.79135
rclavicle 8.67043e-015 7.00716e-015
rhumerus -36.1942 25.6552 -92.2648
rradius 93.5138
rwrist 17.8323
rhand -15.3805 -32.5826
rfingers 7.12502
rthumb 10.7977 -62.2851
lclavicle 8.67043e-015 7.00716e-015
lhumerus -45.6292 -21.2123 98.5098
lradius 103.508
lwrist 28.6326
lhand -16.0358 -28.3608
lfingers 7.12502
lthumb 10.1656 1.37359
rfemur 0 0 0
rtibia 0
rfoot 0 0
rtoes 0
lfemur -3.6686 -8.14691 -13.6526
ltibia 20.9576
lfoot -25.392 17.3173
ltoes -53.5361
158
root -0.541502 18.6957 5.62892 2.01478 -4.7816 -1.58411
lowerback 0.90592 0.785052 -0.682707
upperback -2.59819 1.05829 1.0088
thorax -3.20759 0.558962 1.38019
lowerneck -15.6427 -0.988537 -2.35421
upperneck 32.9912 -1.201 1.28496
head 13.8394 -0.652479 0.727871
rclavicle -4.44159e-015 -8.62228e-015
rhumerus -35.2586 27.0061 -91.9487
rradius 94.1786
rwrist 18.2758
rhand -12.9205 -32.911
rfingers 7.12502
rthumb 13.1698 -62.4751
lclavicle -4.44159e-015 -8.62228e-015
lhumerus -45.4089 -21.8191 98.8944
lradius 104.091
lwrist 28.922
lhand -16.2615 -28.6889
lfingers 7.12502
lthumb 9.94783 1.05605
rfemur 0 0 0
rtibia 0
rfoot 0 0
rtoes 0
lfemur -3.58996 -8.17472 -13.6539
ltibia 20.9674
lfoot -25.4189 17.3749
ltoes -53.5412
159
root -0.541947 18.6953 5.62917 1.96733 -4.83289 -1.57103
lowerback 0.879107 0.826264 -0.709971
upperback -2.5897 1.11251 1.00392
thorax -3.18576 0.586491 1.38886
lowerneck -15.6191 -0.99698 -2.28568
upperneck 33.2677 -1.1868 1.13847
head 13.9547 -0.658989 0.660883
rclavicle 5.98994e-015 -3.97569e-015
rhumerus -34.5685 28.5041 -91.7942
rradius 94.7494
rwrist 18.6195
rhand -14.226 -32.5478
rfingers 7.12502
rthumb 11.9111 -62.1889
lclavicle 5.98994e-015 -3.97569e-015
lhumerus -45.2643 -22.3738 99.2873
lradius 104.641
lwrist 29.4832
lhand -16.4407 -28.7991
lfingers 7.12502
lthumb 9.77501 0.954059
rfemur 0 0 0
rtibia 0
rfoot 0 0
rtoes 0
lfemur -3.55173 -8.14771 -13.686
ltibia 21.0175
lfoot -25.4334 17.4106
ltoes -53.5439
160
root -0.538807 18.692 5.62917 1.82151 -4.6031 -1.57816
lowerback 0.961362 0.778338 -0.632164
upperback -2.52789 1.04937 0.979137
thorax -3.16442 0.552278 1.32139
lowerneck -15.6884 -0.999418 -2.22241
upperneck 33.5458 -1.18181 1.0563
head 14.0931 -0.660827 0.61857
rclavicle 2.72956e-014 1.38652e-014
rhumerus -33.9366 30.0334 -91.7222
rradius 95.1044
rwrist 18.8834
rhand -17.0525 -31.8805
rfingers 7.12502
rthumb 9.18469 -61.6605
lclavicle 2.72956e-014 1.38652e-014
lhumerus -45.074 -22.8981 99.6438
lradius 105.164
lwrist 30.2344
lhand -16.5758 -28.7141
lfingers 7.12502
lthumb 9.64461 1.04516
rfemur 0 0 0
rtibia 0
rfoot 0 0
rtoes 0
lfemur -3.48159 -7.96459 -13.6554
ltibia 21.1385
lfoot -25.3131 17.0953
ltoes -53.6791
161
root -0.535469 18.6855 5.62836 1.49461 -4.14177 -1.82385
lowerback 1.25002 0.652619 -0.277228
upperback -2.39967 0.891354 1.00885
thorax -3.18521 0.46458 1.15629
lowerneck -15.784 -0.993363 -2.34057
upperneck 33.8089 -1.2059 1.25659
head 14.2359 -0.659067 0.717589
rclavicle 6.08079e-015 1.00386e-014
rhumerus -33.1126 31.219 -91.4407
rradius 95.3607
rwrist 19.3724
rhand -18.5736 -30.8536
rfingers 7.12502
rthumb 7.71675 -60.6928
lclavicle 6.08079e-015 1.00386e-014
lhumerus -44.876 -23.4135 99.9421
lradius 105.58
lwrist 30.7568
lhand -16.6509 -28.8399
lfingers 7.12502
lthumb 9.57223 0.922645
rfemur 0 0 0
rtibia 0
rfoot 0 0
rtoes 0
lfemur -3.16204 -7.69643 -13.3276
ltibia 21.1309
lfoot -24.9927 16.5119
ltoes -53.8572
162
root -0.546441 18.681 5.6316 1.19506 -3.8746 -2.46657
lowerback 1.49972 0.584352 0.271622
upperback -2.27868 0.821581 1.17788
thorax -3.19441 0.418294 1.02324
lowerneck -15.858 -0.992489 -2.49259
upperneck 34.0655 -1.25655 1.53575
head 14.3737 -0.662296 0.851196
rclavicle 5.69953e-016 -1.12313e-014
rhumerus -32.3904 32.1747 -91.1633
rradius 95.7516
rwrist 19.9496
rhand -19.001 -30.5648
rfingers 7.12502
rthumb 7.30422 -60.4187
lclavicle 5.69953e-016 -1.12313e-014
lhumerus -44.7376 -23.8603 100.154
lradius 105.851
lwrist 30.7161
lhand -16.5533 -28.9519
lfingers 7.12502
lthumb 9.66638 0.806329
rfemur 0 0 0
rtibia 0
rfoot 0 0
rtoes 0
lfemur -2.82184 -7.52049 -12.5348
ltibia 21.1042
lfoot -24.7255 16.1337
ltoes -53.9749
163
root -0.568111 18.6882 5.63901 1.46484 -3.82702 -1.7188
lowerback 0.987807 0.599136 -0.849408
upperback -2.31809 0.804501 1.01034
thorax -2.95955 0.433625 1.48527
lowerneck -15.9095 -1.00781 -2.52307
upperneck 34.2478 -1.32256 1.68047
head 14.4718 -0.674714 0.906152
rclavicle 7.30301e-016 -1.10232e-014
rhumerus -31.8773 33.0034 -91.0051
rradius 96.0786
rwrist 20.7021
rhand -19.5875 -30.4047
rfingers 7.12502
rthumb 6.73804 -60.2774
lclavicle 7.30301e-016 -1.10232e-014
lhumerus -44.5614 -24.2179 100.348
lradius 105.995
lwrist 30.3745
lhand -16.4052 -28.9699
lfingers 7.12502
lthumb 9.80924 0.781662
rfemur 0 0 0
rtibia 0
rfoot 0 0
rtoes 0
lfemur -3.17508 -7.65804 -13.2627
ltibia 21.0397
lfoot -24.6603 16.2725
ltoes -53.9519
164
root -0.575997 18.6905 5.64208 1.57975 -3.76112 -1.51176
lowerback 0.74354 0.630269 -1.19327
upperback -2.30228 0.837844 0.945515
thorax -2.81099 0.456241 1.61303
lowerneck -15.968 -1.03934 -2.46755
upperneck 34.3442 -1.39272 1.69713
head 14.5311 -0.694817 0.892201
rclavicle -1.16367e-014 -1.35298e-014
rhumerus -31.4347 33.6918 -90.864
rradius 96.2343
rwrist 21.5339
rhand -20.2946 -30.0001
rfingers 7.12502
rthumb 6.05539 -59.8936
lclavicle -1.16367e-014 -1.35298e-014
lhumerus -44.2902 -24.5253 100.588
lradius 106.046
lwrist 30.165
lhand -16.32 -28.9876
lfingers 7.12502
lthumb 9.89143 0.760005
rfemur 0 0 0
rtibia 0
rfoot 0 0
rtoes 0
lfemur -3.29407 -7.73124 -13.4487
ltibia 20.9507
lfoot -24.6502 16.3009
ltoes -53.9512
165
root -0.577033 18.6906 5.64334 1.58449 -3.67775 -1.52302
lowerback 0.683909 0.659224 -1.20177
upperback -2.28101 0.876106 0.916904
thorax -2.75654 0.474647 1.58793
lowerneck -15.9534 -1.06551 -2.35406
upperneck 34.3894 -1.44805 1.63953
head 14.5485 -0.711426 0.839691
rclavicle 1.95679e-015 5.06901e-015
rhumerus -31.1841 34.3683 -90.8456
rradius 96.3587
rwrist 22.224
rhand -20.7721 -30.0963
rfingers 7.12502
rthumb 5.59434 -60.0025
lclavicle 1.95679e-015 5.06901e-015
lhumerus -44.0605 -24.7599 100.824
lradius 106.085
lwrist 30.2641
lhand -16.2143 -28.8061
lfingers 7.12502
lthumb 9.99338 0.936684
rfemur 0 0 0
rtibia 0
rfoot 0 0
rtoes 0
lfemur -3.23092 -7.71466 -13.424
ltibia 20.7907
lfoot -24.5492 16.2835
ltoes -54.0288
166
root -0.57772 18.6904 5.64499 1.57438 -3.59374 -1.48899
lowerback 0.665539 0.674344 -1.27073
upperback -2.27329 0.894473 0.893952
thorax -2.73969 0.484886 1.6027
lowerneck -15.8823 -1.09844 -2.2767
upperneck 34.3898 -1.50304 1.58287
head 14.5326 -0.732799 0.793735
rclavicle -7.94673e-015 -8.89561e-015
rhumerus -30.8677 34.7924 -90.7017
rradius 96.3405
rwrist 23.1691
rhand -20.7607 -29.9884
rfingers 7.12502
rthumb 5.60542 -59.8943
lclavicle -7.94673e-015 -8.89561e-015
lhumerus -43.9245 -24.9295 101.025
lradius 106.139
lwrist 30.5403
lhand -16.1362 -28.6538
lfingers 7.12502
lthumb 10.0687 1.0853
rfemur 0 0 0
rtibia 0
rfoot 0 0
rtoes 0
lfemur -3.21967 -7.70524 -13.4532
ltibia 20.7651
lfoot -24.4778 16.2158
ltoes -54.002
167
root -0.578731 18.6905 5.64628 1.57583 -3.53461 -1.4846
lowerback 0.633009 0.692082 -1.33676
upperback -2.24996 0.917266 0.900265
thorax -2.69945 0.497314 1.64605
lowerneck -15.9175 -1.143 -2.37693
upperneck 34.4125 -1.56377 1.66018
head 14.5547 -0.760794 0.833012
rclavicle -9.59291e-015 8.15017e-015
rhumerus -30.6476 35.5072 -90.7071
rradius 96.3074
rwrist 23.0556
rhand -21.556 -29.9806
rfingers 7.12502
rthumb 4.83755 -59.9054
lclavicle -9.59291e-015 8.15017e-015
lhumerus -43.7998 -25.0536 101.205
lradius 106.158
lwrist 30.7373
lhand -16.0786 -28.7272
lfingers 7.12502
lthumb 10.1243 1.00921
rfemur 0 0 0
rtibia 0
rfoot 0 0
rtoes 0
lfemur -3.23564 -7.73491 -13.4525
ltibia 20.7787
lfoot -24.4695 16.1669
ltoes -53.949
168
root -0.580505 18.6908 5.64777 1.58177 -3.48258 -1.50161
lowerback 0.588165 0.701822 -1.38089
upperback -2.22494 0.930043 0.90836
thorax -2.64983 0.504166 1.67945
lowerneck -16.0025 -1.18073 -2.57746
upperneck 34.4435 -1.61775 1.84058
head 14.5942 -0.784505 0.933483
rclavicle 2.36212e-015 -9.19379e-015
rhumerus -30.4604 36.136 -90.7139
rradius 96.2476
rwrist 23.1487
rhand -21.9631 -29.9686
rfingers 7.12502
rthumb 4.44444 -59.9019
lclavicle 2.36212e-015 -9.19379e-015
lhumerus -43.6895 -25.1303 101.34
lradius 106.139
lwrist 30.7355
lhand -15.9883 -28.84
lfingers 7.12502
lthumb 10.2114 0.892151
rfemur 0 0 0
rtibia 0
rfoot 0 0
rtoes 0
lfemur -3.25499 -7.73138 -13.4241
ltibia 20.7883
lfoot -24.4205 16.1606
ltoes -54.0439
169
root -0.582179 18.6907 5.64894 1.58635 -3.41037 -1.49751
lowerback 0.590291 0.694407 -1.42626
upperback -2.23092 0.919049 0.899877
thorax -2.65739 0.499656 1.69645
lowerneck -15.9799 -1.20551 -2.6194
upperneck 34.4141 -1.64695 1.85763
head 14.5771 -0.800133 0.942732
rclavicle 8.23403e-015 0
rhumerus -30.4591 36.6779 -90.8422
rradius 96.2049
rwrist 23.4107
rhand -22.104 -29.9952
rfingers 7.12502
rthumb 4.30831 -59.9314
lclavicle 8.23403e-015 0
lhumerus -43.6736 -25.1701 101.441
lradius 106.153
lwrist 30.5782
lhand -15.947 -28.9406
lfingers 7.12502
lthumb 10.2513 0.789636
rfemur 0 0 0
rtibia 0
rfoot 0 0
rtoes 0
lfemur -3.28132 -7.73656 -13.4154
ltibia 20.797
lfoot -24.3523 16.1563
ltoes -54.1421
